<svg width="169" height="82" xmlns="http://www.w3.org/2000/svg"><defs><linearGradient x1="50.597%" y1="7.334%" x2="49.645%" y2="100.181%" id="a"><stop stop-color="#D9D8DC" offset="0%"/><stop stop-color="#FFF" stop-opacity=".385" offset="100%"/></linearGradient><linearGradient x1="53.641%" y1="6.087%" x2="48.27%" y2="98.621%" id="b"><stop stop-color="#8D67AF" stop-opacity=".672" offset="0%"/><stop stop-color="#9F8DAF" offset="100%"/></linearGradient><linearGradient x1="50.132%" y1="31.338%" x2="50.132%" y2="98.162%" id="c"><stop stop-color="#26053D" stop-opacity=".762" offset="0%"/><stop stop-color="#B7B4B4" stop-opacity=".278" offset="100%"/></linearGradient><linearGradient x1="20.389%" y1="25.309%" x2="60.294%" y2="71.833%" id="d"><stop stop-color="#91739F" stop-opacity=".46" offset="0%"/><stop stop-color="#32054F" stop-opacity=".54" offset="100%"/></linearGradient><linearGradient x1="68.084%" y1="96.581%" x2="25.761%" y2="21.351%" id="e"><stop stop-color="#463D49" stop-opacity=".331" offset="0%"/><stop stop-color="#340A50" stop-opacity=".821" offset="100%"/></linearGradient><linearGradient x1="53.681%" y1="5.768%" x2="48.785%" y2="98.226%" id="f"><stop stop-color="#715383" stop-opacity=".145" offset="0%"/><stop stop-color="#F4F4F4" stop-opacity=".234" offset="100%"/></linearGradient><linearGradient x1="58.657%" y1="65.108%" x2="45.94%" y2="42.483%" id="g"><stop stop-color="#A5A1A8" stop-opacity=".356" offset="0%"/><stop stop-color="#370C50" stop-opacity=".582" offset="100%"/></linearGradient></defs><g fill="none"><path d="M29.507.351c-5.978 2.123-11.571 8.3-17.164 18.337C4.05 33.938-6.557 55.556 8.1 72.735c6.75 7.914 18.129 12.546 32.786 5.212 11.764-5.984 15.235-23.163 10.8-31.077-8.872-16.6-17.743-20.654-20.057-30.884-1.543-6.949-2.315-12.16-2.122-15.635z" fill="url(#a)"/><path d="M29.507.158c-5.978 2.123-11.764 8.3-17.164 18.337C4.05 33.745-6.557 55.363 8.1 72.542c6.75 7.914 17.936 10.423 24.107 5.79 4.05-3.088 6.75-5.983 8.293-12.16 1.736-6.949.386-16.02-.579-20.46-1.157-5.405-1.542-11.196-1.157-17.759 0 0-.193 0-.193-.193-3.278-3.86-5.592-7.334-6.75-12.16C30.086 8.844 29.314 3.633 29.507.158z" fill="url(#b)"/><path d="M24.493 2.86C18.9 7.3 14.85 14.635 12.15 24.865 8.1 40.307 7.714 54.591 9.064 63.084c2.7 16.214 17.165 22.197 31.822 14.67 9.064-4.633 12.921-14.477 12.728-25.287-.193-11.195-21.793-23.741-25.457-33.007-2.507-6.37-3.664-11.774-3.664-16.6z" fill="url(#c)"/><path d="M38.571 31.814c6.75 8.493 8.1 14.477 4.436 17.758-5.593 5.019-19.478 8.3-27.964 2.316-5.786-4.053-7.907-12.74-6.557-26.058-2.316 5.02-4.436 9.844-5.979 15.056C.964 45.905.386 51.309 1.157 56.714c2.122 4.053 6.943 6.949 14.85 8.3 11.764 2.123 22.95.965 30.472-2.702 5.014-2.51 7.328-5.019 7.135-7.528.193-3.668-.964-7.142-3.471-10.617-2.314-3.474-6.172-7.527-11.572-12.353z" fill="url(#d)"/><path d="M12.536 23.32c0 6.178 1.543 11.968 4.821 17.566 4.822 8.3 10.414 16.6 18.9 23.356 5.593 4.632 10.222 5.984 13.5 4.44-2.7 5.018-5.786 7.334-8.871 7.334-4.629-.193-10.415-2.123-19.479-13.125-6.171-7.335-10.221-14.284-12.536-20.847.386-2.51.772-5.211 1.158-7.72.578-2.51 1.35-6.177 2.507-11.003z" fill="url(#e)"/><path d="M27 31.814c.579 5.019 2.507 13.126 0 18.337-2.507 5.405-13.886 15.056-10.8 23.549 3.086 8.493 10.8 6.563 15.621 2.702 4.822-3.86 7.329-10.23 7.908-14.862.578-4.44-1.35-13.126-1.929-20.654-.386-5.019-.193-9.265.771-12.933l-1.542-1.93-8.679-2.509c-1.157 2.123-1.736 4.826-1.35 8.3z" fill="url(#f)"/><path d="M30.086 6.914c-2.893 1.158-5.4 3.474-7.907 7.142-3.858 5.211-5.786 8.493-4.243 18.916.964 6.949 1.543 13.319 2.121 19.302l12.15-35.323c-.386-1.737-.771-3.474-1.157-4.825-.579-1.738-.771-3.282-.964-5.212z" fill="url(#g)"/><path d="M32.014 16.758c-3.085 1.737-5.4 5.598-7.135 11.002-1.736 5.598-3.279 13.32-4.629 23.356 1.929-6.37 3.086-11.002 3.664-13.897.965-4.247 1.157-10.424 3.665-14.477 1.542-2.702 3.085-4.633 4.435-5.984z" fill-opacity=".316" fill="#330A4C"/><path d="M17.55 76.595c5.014.772 7.714 1.352 7.907 1.93.386.773-.578 1.545-3.471 1.159-1.736-.386-3.279-1.351-4.436-3.089z" fill="#FFF"/><path d="M20.25 6.914c-2.7 3.281-5.207 6.949-7.329 10.616-2.121 3.668-3.471 6.563-4.435 8.3-.193 1.351-.386 3.475-.386 6.177 0 2.702.193 5.598.771 8.879.386-6.37 1.543-12.74 3.665-18.723 1.928-5.984 4.628-11.196 7.714-15.249z" fill-opacity=".603" fill="#EDEDED"/><path d="M72.72 53.647h15.54c.393 0 .59-.195.59-.585 1.573-15.211-9.638-14.041-9.638-14.041C71.344 39.02 68 45.066 68 52.477c0 7.41 6.097 13.066 13.571 12.481 4.524-.39 5.704-2.145 6.49-2.925.198-.195.198-.585 0-.78l-1.376-1.365c-.197-.195-.59-.195-.787 0-5.113 3.51-13.374 1.17-13.768-5.656 0-.39.197-.585.59-.585zm6.491-10.726c2.95 0 5.114 1.755 5.507 6.24 0 .39-.196.586-.59.586h-11.21c-.394 0-.59-.195-.59-.585.196-4.29 3.933-6.24 6.883-6.24zM95.766 29h3.064c.383 0 .574.194.574.58v27.872c0 4.258 2.681 3.677 4.022 3.483.383 0 .574.194.574.581v2.903c0 .387-.191.581-.574.581-7.66-.194-8.426-3.677-8.426-6.968V29.581c.191-.194.383-.581.766-.581zm14.756 11h2.956c.348 0 .522.195.522.586v23.828c0 .39-.174.586-.522.586h-2.956c-.348 0-.522-.195-.522-.586V40.586c0-.39.174-.586.522-.586zm0-7h2.956c.348 0 .522-.182.522-.545v-2.91c0-.363-.174-.545-.522-.545h-2.956c-.348 0-.522.182-.522.545v2.91c0 .363.174.545.522.545zm35 7h2.956c.348 0 .522.195.522.586v23.828c0 .39-.174.586-.522.586h-2.956c-.348 0-.522-.195-.522-.586V40.586c0-.39.174-.586.522-.586zm23.478.459v3.26c0 .383-.194.574-.58.574-5.42.192-6.968 1.918-6.968 4.793v15.339c0 .383-.194.575-.581.575h-3.29c-.387 0-.581-.192-.581-.575v-23.2c0-.383.194-.575.58-.575h3.291c.387 0 .58.192.58.576v1.725c.775-1.15 2.71-2.684 6.968-2.876.387-.192.581 0 .581.384zM145.522 33h2.956c.348 0 .522-.182.522-.545v-2.91c0-.363-.174-.545-.522-.545h-2.956c-.348 0-.522.182-.522.545v2.91c0 .363.174.545.522.545zm-5.68 31.016l-8.002-11.811c-.19-.197-.19-.394 0-.59l7.05-10.828c.19-.393 0-.787-.382-.787h-3.048c-.19 0-.381 0-.381.197l-5.144 7.677a.532.532 0 01-.953 0l-5.144-7.677c-.19-.197-.19-.197-.381-.197h-3.049c-.38 0-.762.59-.38.787l7.049 10.827c.19.197.19.394 0 .59l-8.002 11.812c-.19.393 0 .984.38.984h3.62c.191 0 .382 0 .382-.197l5.525-8.464a.532.532 0 01.953 0l5.525 8.464c.19.197.19.197.381.197h3.62c.381-.197.762-.59.381-.984z" fill="#333"/></g></svg>